<?xml version="1.0" encoding="UTF-8"?>
<svg width="48px" height="48px" viewBox="0 0 48 48" version="1.1" xmlns="http://www.w3.org/2000/svg" xmlns:xlink="http://www.w3.org/1999/xlink">
    <title>图标/云庭审主机（正常）备份</title>
    <g id="图标/云庭审主机（正常）备份" stroke="none" stroke-width="1" fill="none" fill-rule="evenodd">
        <rect id="矩形" fill-opacity="0.08" fill="#3079FE" x="0" y="0" width="48" height="48" rx="6"></rect>
        <g id="io主机" transform="translate(6.000000, 6.000000)" fill="#02BF0F" fill-rule="nonzero">
            <path d="M34.8607595,25 L1.13924051,25 C0.455696203,25 7.69005113e-16,25.5 7.69005113e-16,26.25 L7.69005113e-16,34.75 C7.69005113e-16,35.5 0.455696203,36 1.13924051,36 L34.8607595,36 C35.5443038,36 36,35.5 36,34.75 L36,26 C36,25.75 35.5443038,25 34.8607595,25 Z M2.50632911,29.25 L2.50632911,27 L7.74683544,27 L7.74683544,29.25 L2.50632911,29.25 Z M2.50632911,34.25 L2.50632911,32 L7.74683544,32 L7.74683544,34.25 L2.50632911,34.25 Z M10.0253165,29.25 L10.0253165,27 L15.2658228,27 L15.2658228,29.25 L10.0253165,29.25 Z M10.0253165,34.25 L10.0253165,32 L15.2658228,32 L15.2658228,34.25 L10.0253165,34.25 Z M29.8481013,33.5 C28.4810127,33.5 27.3417722,32.25 27.3417722,30.75 C27.3417722,29.25 28.4810127,28 29.8481013,28 C31.2151899,28 32.3544304,29.25 32.3544304,30.75 C32.3544304,32.25 31.2151899,33.5 29.8481013,33.5 Z M34.8607595,12.5 L1.13924051,12.5 C0.455696203,12.5 7.69005113e-16,13.25 7.69005113e-16,14 L7.69005113e-16,22.5 C7.69005113e-16,23.25 0.455696203,23.75 1.13924051,23.75 L34.8607595,23.75 C35.5443038,23.75 36,23.25 36,22.5 L36,13.75 C36,13.25 35.5443038,12.5 34.8607595,12.5 L34.8607595,12.5 Z M2.50632911,16.75 L2.50632911,14.5 L7.74683544,14.5 L7.74683544,16.75 L2.50632911,16.75 Z M2.50632911,21.75 L2.50632911,19.5 L7.74683544,19.5 L7.74683544,21.75 L2.50632911,21.75 Z M10.0253165,16.75 L10.0253165,14.5 L15.2658228,14.5 L15.2658228,16.75 L10.0253165,16.75 Z M10.0253165,21.75 L10.0253165,19.5 L15.2658228,19.5 L15.2658228,21.75 L10.0253165,21.75 Z M29.8481013,21 C28.4810127,21 27.3417722,19.75 27.3417722,18.25 C27.3417722,16.75 28.4810127,15.5 29.8481013,15.5 C31.2151899,15.5 32.3544304,16.75 32.3544304,18.25 C32.3544304,19.75 31.2151899,21 29.8481013,21 Z M34.8607595,-7.10542736e-16 L1.13924051,-7.10542736e-16 C0.455696203,-7.10542736e-16 7.69005113e-16,0.75 7.69005113e-16,1.5 L7.69005113e-16,10 C7.69005113e-16,10.75 0.455696203,11.25 1.13924051,11.25 L34.8607595,11.25 C35.5443038,11.25 36,10.75 36,10 L36,1.25 C36,0.75 35.5443038,-7.10542736e-16 34.8607595,-7.10542736e-16 Z M2.50632911,4.25 L2.50632911,2 L7.74683544,2 L7.74683544,4.25 L2.50632911,4.25 Z M2.50632911,9.25 L2.50632911,7 L7.74683544,7 L7.74683544,9.25 L2.50632911,9.25 Z M10.0253165,4.25 L10.0253165,2 L15.2658228,2 L15.2658228,4.25 L10.0253165,4.25 Z M10.0253165,9.25 L10.0253165,7 L15.2658228,7 L15.2658228,9.25 L10.0253165,9.25 Z M29.8481013,8.5 C28.4810127,8.5 27.3417722,7.25 27.3417722,5.75 C27.3417722,4.25 28.4810127,3 29.8481013,3 C31.2151899,3 32.3544304,4.25 32.3544304,5.75 C32.3544304,7.25 31.2151899,8.5 29.8481013,8.5 Z" id="形状"></path>
        </g>
    </g>
</svg>